<?xml version="1.0" standalone="no"?>
<!DOCTYPE svg PUBLIC "-//W3C//DTD SVG 20010904//EN"
 "http://www.w3.org/TR/2001/REC-SVG-20010904/DTD/svg10.dtd">
<svg version="1.0" xmlns="http://www.w3.org/2000/svg"
 width="847.000000pt" height="847.000000pt" viewBox="0 0 847.000000 847.000000"
 preserveAspectRatio="xMidYMid meet">
<metadata>
Created by potrace 1.14, written by Peter Selinger 2001-2017
</metadata>
<g transform="translate(0.000000,847.000000) scale(0.100000,-0.100000)"
fill="#000000" stroke="none">
<path d="M2754 8067 c-133 -40 -534 -255 -839 -452 -140 -90 -279 -172 -382
-224 -112 -58 -167 -105 -202 -176 -30 -60 -30 -113 -1 -197 23 -66 111 -248
152 -314 45 -72 100 -201 114 -263 21 -98 9 -227 -31 -332 -15 -40 -28 -132
-28 -194 1 -76 23 -160 68 -252 47 -96 60 -142 69 -229 4 -42 -2 -70 -30 -150
-97 -273 -199 -603 -220 -707 -15 -81 -24 -140 -29 -192 -3 -33 -8 -85 -11
-115 -12 -129 -6 -402 12 -500 2 -14 7 -47 10 -75 2 -27 7 -59 9 -70 7 -34 -7
-44 -117 -84 -118 -42 -180 -76 -218 -116 -24 -25 -25 -33 -28 -175 -4 -143
-3 -149 21 -187 16 -25 60 -63 117 -102 119 -82 142 -120 154 -251 3 -30 7
-64 10 -75 2 -11 7 -54 12 -95 4 -41 8 -77 9 -80 13 -56 19 -73 33 -102 48
-92 112 -159 198 -209 28 -16 116 -50 195 -75 79 -26 149 -54 156 -63 6 -9 36
-63 66 -121 107 -210 190 -354 224 -390 7 -8 31 -43 53 -77 67 -107 308 -365
460 -493 230 -195 490 -302 747 -310 311 -10 1425 1 1593 15 130 11 226 22
296 36 28 5 64 12 80 15 16 3 38 8 49 11 11 4 22 8 25 8 126 30 260 98 365
185 102 85 423 422 490 515 11 15 29 39 40 54 66 85 174 266 251 421 104 211
152 339 296 790 11 36 31 85 43 110 41 79 80 247 90 391 3 46 8 100 10 119 19
168 31 898 20 1175 -6 143 -15 323 -20 375 -2 25 -7 77 -10 115 -3 39 -8 88
-11 110 -4 22 -7 54 -9 70 -5 63 -43 318 -61 405 -3 14 -7 39 -10 55 -8 46
-63 271 -85 350 -146 518 -380 966 -679 1299 -301 337 -499 509 -681 593 -63
30 -173 65 -212 68 -18 1 -48 5 -67 8 -19 4 -51 9 -70 11 -195 27 -1189 27
-1555 1 -33 -2 -114 -7 -180 -10 -66 -3 -153 -8 -194 -11 l-73 -6 -89 62
c-176 121 -263 145 -395 107z"/>
</g>
</svg>
